<svg class="filament-spool"
     style="width: 60px; height: 60px;"
     viewBox="0 0 64 64">
    <g style="fill: {{ fill_color }}">
        <path d="M24.34,6.64v50.73c0,.45.38.81.86.81s.86-.36.86-.81V6.64c0-.45-.38-.81-.86-.81s-.86.36-.86.81Z"/>
        <path d="M27.06,6.64v50.73c0,.45.38.81.86.81s.86-.36.86-.81V6.64c0-.45-.38-.81-.86-.81s-.86.36-.86.81Z"/>
        <path d="M29.78,6.64v50.73c0,.45.38.81.86.81s.86-.36.86-.81V6.64c0-.45-.38-.81-.86-.81s-.86.36-.86.81Z"/>
        <path d="M32.5,6.64v50.73c0,.45.38.81.86.81s.86-.36.86-.81V6.64c0-.45-.38-.81-.86-.81s-.86.36-.86.81Z"/>
        <path d="M35.22,6.64v50.73c0,.45.38.81.86.81s.86-.36.86-.81V6.64c0-.45-.38-.81-.86-.81s-.86.36-.86.81Z"/>
        <path d="M37.94,6.64v50.73c0,.45.38.81.86.81s.86-.36.86-.81V6.64c0-.45-.38-.81-.86-.81s-.86.36-.86.81Z"/>
    </g>
    <g style="fill: {{ spool_color }}">
        <path d="M19.66,1.72v60.56c0,.95.77,1.72,1.72,1.72s1.72-.77,1.72-1.72V1.72C23.09.77,22.32,0,21.38,0s-1.72.77-1.72,1.72Z"/>
        <path d="M40.91,1.72v60.56c0,.95.77,1.72,1.72,1.72s1.72-.77,1.72-1.72V1.72C44.34.77,43.57,0,42.62,0s-1.72.77-1.72,1.72Z"/>
    </g>
</svg>
